<svg xmlns="http://www.w3.org/2000/svg" width="24" height="14.727" viewBox="0 0 24 14.727">
  <defs>
    <style>
      .cls-1 {
        fill: #fff;
      }
    </style>
  </defs>
  <path id="Icon_awesome-backspace" data-name="Icon awesome-backspace" class="cls-1" d="M21.6,4.5H7.7A2.372,2.372,0,0,0,6,5.219L.351,11a1.247,1.247,0,0,0,0,1.735L6,18.507a2.374,2.374,0,0,0,1.7.719H21.6A2.427,2.427,0,0,0,24,16.772V6.954A2.427,2.427,0,0,0,21.6,4.5Zm-3.176,9.743a.623.623,0,0,1,0,.868l-.848.867a.591.591,0,0,1-.849,0L14.4,13.6l-2.327,2.38a.591.591,0,0,1-.849,0l-.848-.867a.623.623,0,0,1,0-.868l2.327-2.38-2.327-2.38a.623.623,0,0,1,0-.868l.848-.867a.591.591,0,0,1,.849,0l2.327,2.38,2.327-2.38a.591.591,0,0,1,.849,0l.848.867a.623.623,0,0,1,0,.868L16.1,11.863Z" transform="translate(0 -4.5)"/>
</svg>
