<svg xmlns="http://www.w3.org/2000/svg" width="24" height="21.333" viewBox="0 0 24 21.333">
  <defs>
    <style>
      .cls-1 {
        fill: #fff;
      }
    </style>
  </defs>
  <path id="Icon_awesome-square-root-alt" data-name="Icon awesome-square-root-alt" class="cls-1" d="M23.8,10.471l-.943-.943a.667.667,0,0,0-.943,0L20,11.448,18.081,9.529a.667.667,0,0,0-.943,0l-.942.943a.667.667,0,0,0,0,.943l1.919,1.919L16.2,15.253a.667.667,0,0,0,0,.943l.942.942a.667.667,0,0,0,.943,0L20,15.219l1.919,1.919a.667.667,0,0,0,.943,0L23.8,16.2a.667.667,0,0,0,0-.943l-1.919-1.919L23.8,11.414A.667.667,0,0,0,23.8,10.471ZM23,0H12.819a1.333,1.333,0,0,0-1.29.995L8,14.445,5.563,10.024a1.334,1.334,0,0,0-1.168-.69H1a1,1,0,0,0-1,1v2a1,1,0,0,0,1,1H2.817l3.7,6.822a2.333,2.333,0,0,0,4.28-.55L14.876,4H23a1,1,0,0,0,1-1V1A1,1,0,0,0,23,0Z"/>
</svg>
